G04 ================== begin FILE IDENTIFICATION RECORD ==================*
G04 Layout Name:  C:/USERS/NEGRU NICUSOR/ONEDRIVE/DESKTOP/PCADE/allegro/PCADE.brd*
G04 Film Name:    BOTTOM*
G04 File Format:  Gerber RS274X*
G04 File Origin:  Cadence Allegro 17.2-S025*
G04 Origin Date:  Sat Jan 18 15:10:38 2025*
G04 *
G04 Layer:  BOARD GEOMETRY/DESIGN_OUTLINE*
G04 Layer:  ETCH/BOTTOM*
G04 Layer:  PIN/BOTTOM*
G04 Layer:  VIA CLASS/BOTTOM*
G04 *
G04 Offset:    (0.00 0.00)*
G04 Mirror:    No*
G04 Mode:      Positive*
G04 Rotation:  0*
G04 FullContactRelief:  No*
G04 UndefLineWidth:     8.00*
G04 ================== end FILE IDENTIFICATION RECORD ====================*
%FSLAX25Y25*MOIN*%
%IR0*IPPOS*OFA0.00000B0.00000*MIA0B0*SFA1.00000B1.00000*%
%ADD19C,.05*%
%ADD15C,.06*%
%ADD12C,.024*%
%ADD14C,.052*%
%ADD10C,.025*%
%ADD18C,.055*%
%ADD11C,.065*%
%ADD16R,.06X.06*%
%ADD13R,.052X.052*%
%ADD17R,.055X.055*%
%ADD20C,.012*%
%ADD21C,.044*%
%ADD22C,.008*%
%ADD27C,.06004*%
%ADD24C,.07004*%
%ADD25C,.08004*%
%ADD23C,.07504*%
%ADD26C,.08504*%
G75*
%LPD*%
G75*
G36*
G01X-219398Y-227500D02*
Y-219398D01*
X-227500D01*
Y-20602D01*
X-219398D01*
Y-12500D01*
X-20602D01*
Y-20602D01*
X-12500D01*
Y-227500D01*
X-219398D01*
G37*
%LPC*%
G75*
G36*
G01X-116274Y-101461D02*
X-103398Y-114337D01*
Y-123489D01*
G02X-106602I-1602J-1511D01*
G01Y-115663D01*
X-118538Y-103727D01*
X-118657Y-103770D01*
G02X-122362Y-103230I-1342J3770D01*
G03X-122998Y-103553I-236J-323D01*
G01Y-140762D01*
G03X-122348Y-141074I400J0D01*
G02Y-146926I2348J-2926D01*
G03X-122998Y-147238I-250J-312D01*
G01Y-164737D01*
X-109337Y-178398D01*
X-103752D01*
Y-177250D01*
G02X-102750Y-176248I1002J0D01*
G01X-97250D01*
G02X-96248Y-177250I0J-1002D01*
G01Y-182750D01*
G02X-96264Y-182928I-1002J0D01*
G03X-95871Y-183398I393J-70D01*
G01X-95663D01*
X-90663Y-178398D01*
X-83752D01*
Y-177250D01*
G02X-82750Y-176248I1002J0D01*
G01X-77250D01*
G02X-76248Y-177250I0J-1002D01*
G01Y-180781D01*
G03X-75566Y-181064I400J0D01*
G01X-71602Y-177100D01*
Y-103668D01*
G02X-68398I1602J3668D01*
G01Y-178426D01*
X-81574Y-191602D01*
X-146061D01*
G02Y-188398I-3939J1602D01*
G01X-82900D01*
X-78936Y-184434D01*
G03X-79219Y-183752I-283J282D01*
G01X-82750D01*
G02X-83752Y-182750I0J1002D01*
G01Y-181602D01*
X-89337D01*
X-94337Y-186602D01*
X-133489D01*
G02Y-183398I-1511J1602D01*
G01X-124129D01*
G03X-123736Y-182928I0J400D01*
G02X-123752Y-182750I986J178D01*
G01Y-181602D01*
X-143850D01*
Y-63035D01*
X-141711Y-60896D01*
X-86839D01*
X-81462Y-66273D01*
X-81343Y-66230D01*
G02X-83770Y-68657I1343J-3770D01*
G01X-83727Y-68538D01*
X-88165Y-64100D01*
X-140385D01*
X-140646Y-64361D01*
Y-178398D01*
X-123752D01*
Y-177250D01*
G02X-122750Y-176248I1002J0D01*
G01X-117250D01*
G02X-116248Y-177250I0J-1002D01*
G01Y-182750D01*
G02X-116264Y-182928I-1002J0D01*
G03X-115871Y-183398I393J-70D01*
G01X-104129D01*
G03X-103736Y-182928I0J400D01*
G02X-103752Y-182750I986J178D01*
G01Y-181602D01*
X-110663D01*
X-126202Y-166063D01*
Y-102798D01*
G03X-126910Y-102544I-400J0D01*
G02X-132726Y-102930I-3090J2544D01*
G03X-133398Y-103223I-272J-293D01*
G01Y-150989D01*
G02X-136602I-1602J-1511D01*
G01Y-84337D01*
X-123726Y-71461D01*
G02X-121343Y-73770I3726J1461D01*
G01X-121462Y-73727D01*
X-133398Y-85663D01*
Y-96777D01*
G03X-132726Y-97070I400J0D01*
G02X-126573Y-97934I2726J-2930D01*
G01X-126514Y-98030D01*
X-126202D01*
Y-97431D01*
X-109369Y-80598D01*
X-82863D01*
X-73727Y-71462D01*
X-73770Y-71343D01*
G02X-71343Y-73770I3770J1343D01*
G01X-71462Y-73727D01*
X-81537Y-83802D01*
X-108043D01*
X-119608Y-95367D01*
G03X-119387Y-96045I283J-283D01*
G02X-116274Y-101461I-613J-3955D01*
G37*
G36*
G01X-189435Y-133962D02*
X-206150Y-150678D01*
Y-175272D01*
X-204624Y-176798D01*
X-202798D01*
G02Y-183202I2798J-3202D01*
G01X-207276D01*
X-212554Y-177924D01*
Y-148026D01*
X-193962Y-129435D01*
X-193952Y-129371D01*
G02X-189371Y-133952I3952J-629D01*
G01X-189435Y-133962D01*
G37*
G36*
G01X-194549Y-72284D02*
G03X-194832Y-71602I-283J282D01*
G01X-196398D01*
Y-72600D01*
G02X-197400Y-73602I-1002J0D01*
G01X-202600D01*
G02X-203602Y-72600I0J1002D01*
G01Y-67400D01*
G02X-202600Y-66398I1002J0D01*
G01X-197400D01*
G02X-196398Y-67400I0J-1002D01*
G01Y-68398D01*
X-190000D01*
G02X-188868Y-71132I0J-1601D01*
G01X-195900Y-78165D01*
Y-101835D01*
X-191462Y-106273D01*
X-191343Y-106230D01*
G02X-186332Y-108398I1343J-3770D01*
G01X-169337D01*
X-161462Y-116273D01*
X-161343Y-116230D01*
G02Y-123770I1343J-3770D01*
G01X-161462Y-123727D01*
X-175900Y-138165D01*
Y-201835D01*
X-171462Y-206273D01*
X-171343Y-206230D01*
G02X-173726Y-208539I1343J-3770D01*
G01X-179104Y-203161D01*
Y-136839D01*
X-163726Y-121461D01*
G02X-163770Y-118657I3726J1461D01*
G01X-163727Y-118538D01*
X-170663Y-111602D01*
X-186332D01*
G02X-193726Y-108539I-3668J1602D01*
G01X-199104Y-103161D01*
Y-76839D01*
X-194549Y-72284D01*
G37*
G36*
G01X-56248Y-182750D02*
G02X-57250Y-183752I-1002J0D01*
G01X-62750D01*
G02X-63752Y-182750I0J1002D01*
G01Y-177250D01*
G02X-62750Y-176248I1002J0D01*
G01X-57250D01*
G02X-56248Y-177250I0J-1002D01*
G01Y-178398D01*
X-54102D01*
Y-126511D01*
G02X-50898I1602J1511D01*
G01Y-181602D01*
X-56248D01*
Y-182750D01*
G37*
G36*
G01X-64002Y-73000D02*
Y-67000D01*
G02X-63000Y-65998I1002J0D01*
G01X-57000D01*
G02X-55998Y-67000I0J-1002D01*
G01Y-73000D01*
G02X-57000Y-74002I-1002J0D01*
G01X-63000D01*
G02X-64002Y-73000I0J1002D01*
G37*
G36*
G01X-193502Y-103000D02*
Y-97000D01*
G02X-193000Y-96498I502J0D01*
G01X-187000D01*
G02X-186498Y-97000I0J-502D01*
G01Y-103000D01*
G02X-187000Y-103502I-502J0D01*
G01X-193000D01*
G02X-193502Y-103000I0J502D01*
G37*
G36*
G01X-38696Y-196709D02*
G02X-40791Y-198804I1196J-3291D01*
G03X-41304Y-198291I-376J137D01*
G02X-39209Y-196196I-1196J3291D01*
G03X-38696Y-196709I376J-137D01*
G37*
G36*
G01X-78398Y-103668D02*
Y-130989D01*
G02X-81602I-1602J-1511D01*
G01Y-103668D01*
G02X-78398I1602J3668D01*
G37*
G36*
G01X-158538Y-106273D02*
X-156752Y-104487D01*
Y-103356D01*
G03X-157410Y-103051I-400J0D01*
G02X-163202Y-97599I-2590J3051D01*
G01Y-72798D01*
G02X-157396Y-66638I3201J2799D01*
G03X-156752Y-66322I244J316D01*
G01Y-35513D01*
X-158346Y-33919D01*
X-158467Y-33966D01*
G02X-161533I-1533J3966D01*
G01X-161654Y-33919D01*
X-179337Y-51602D01*
X-196774D01*
G02X-201036Y-53450I-3226J1602D01*
G01X-201151Y-53415D01*
X-206585Y-58849D01*
X-206550Y-58964D01*
G02X-208964Y-56550I-3450J-1036D01*
G01X-208849Y-56585D01*
X-203415Y-51151D01*
X-203450Y-51036D01*
G02X-196774Y-48398I3450J1036D01*
G01X-180663D01*
X-163919Y-31654D01*
X-163966Y-31533D01*
G02X-156034I3966J1533D01*
G01X-156081Y-31654D01*
X-153548Y-34187D01*
Y-105813D01*
X-156274Y-108539D01*
G02X-158657Y-106230I-3726J-1461D01*
G01X-158538Y-106273D01*
G37*
G36*
G01X-191462Y-123727D02*
X-215898Y-148163D01*
Y-148487D01*
X-215849Y-148544D01*
G02X-219102Y-148489I-1652J-1456D01*
G01Y-146837D01*
X-193726Y-121461D01*
G02X-191343Y-123770I3726J1461D01*
G01X-191462Y-123727D01*
G37*
G54D27*
X-42500Y-205000D03*
G54D24*
X-170000Y-200000D03*
X-130000Y-70000D03*
X-90000Y-100000D03*
X-30000Y-160000D03*
G54D25*
X-160000Y-130000D03*
X-110000Y-100000D03*
Y-70000D03*
X-100000Y-100000D03*
Y-70000D03*
X-90000D03*
X-60000Y-100000D03*
Y-40000D03*
Y-50000D03*
X-30000Y-150000D03*
Y-80000D03*
Y-70000D03*
G54D23*
X-200000Y-170000D03*
X-150000Y-150000D03*
X-80000Y-144000D03*
X-100000D03*
X-60000D03*
G54D26*
X-130000Y-200000D03*
X-90000D03*
%LPD*%
G75*
G54D10*
X-229400Y-229400D03*
Y-10600D03*
X-10600D03*
G54D20*
G01X-190000Y-120000D02*
X-217500Y-147500D01*
Y-150000D01*
G01X-190000Y-110000D02*
X-197502Y-102498D01*
Y-77502D01*
X-190000Y-70000D01*
X-200000D01*
G01Y-50000D02*
X-210000Y-60000D01*
G01X-160000Y-30000D02*
X-180000Y-50000D01*
X-200000D01*
G01X-170000Y-210000D02*
X-177502Y-202498D01*
Y-137502D01*
X-160000Y-120000D01*
G01D02*
X-170000Y-110000D01*
X-190000D01*
G01X-70000Y-100000D02*
Y-177763D01*
X-82237Y-190000D01*
X-150000D01*
G01X-120000Y-180000D02*
X-142248D01*
Y-63698D01*
X-141048Y-62498D01*
X-87502D01*
X-80000Y-70000D01*
G01X-160000Y-110000D02*
X-155150Y-105150D01*
Y-34850D01*
X-160000Y-30000D01*
G01X-70000Y-70000D02*
X-82200Y-82200D01*
X-108706D01*
X-124600Y-98094D01*
Y-165400D01*
X-110000Y-180000D01*
X-100000D01*
G01X-135000Y-185000D02*
X-95000D01*
X-90000Y-180000D01*
X-80000D01*
G01X-120000Y-70000D02*
X-135000Y-85000D01*
Y-152500D01*
G01X-120000Y-100000D02*
X-105000Y-115000D01*
Y-125000D01*
G01X-80000Y-132500D02*
Y-100000D01*
G01X-60000Y-180000D02*
X-52500D01*
Y-125000D01*
G54D11*
X-200000Y-170000D03*
Y-180000D03*
X-150000Y-190000D03*
Y-150000D03*
X-160000Y-70000D03*
Y-30000D03*
X-130000Y-200000D03*
X-90000D03*
G54D21*
G01X-200000Y-180000D02*
X-205950D01*
X-209352Y-176598D01*
Y-149352D01*
X-190000Y-130000D01*
G01X-200000Y-170000D02*
Y-166048D01*
G01X-203952Y-170000D02*
X-200000D01*
G01D02*
X-196048D01*
G01X-170000Y-203702D02*
Y-200000D01*
G01D02*
Y-196298D01*
G01X-173702Y-200000D02*
X-170000D01*
G01D02*
X-166298D01*
G01X-190000Y-103702D02*
Y-100000D01*
G01D02*
Y-96298D01*
G01X-193702Y-100000D02*
X-190000D01*
G01D02*
X-186298D01*
G01X-150000Y-153952D02*
Y-150000D01*
G01D02*
Y-146048D01*
G01X-153952Y-150000D02*
X-150000D01*
G01D02*
X-146048D01*
G01X-160000Y-70000D02*
Y-100000D01*
G01X-130000Y-73702D02*
Y-70000D01*
G01D02*
Y-66298D01*
G01X-133702Y-70000D02*
X-130000D01*
G01D02*
X-126298D01*
G01X-90000Y-103702D02*
Y-100000D01*
G01D02*
Y-96298D01*
G01X-93702Y-100000D02*
X-90000D01*
G01D02*
X-86298D01*
G01X-42500Y-208202D02*
Y-205000D01*
G01X-45702D02*
X-42500D01*
G01X-30000Y-163702D02*
Y-160000D01*
G01D02*
Y-156298D01*
G01X-33702Y-160000D02*
X-30000D01*
G01D02*
X-26298D01*
G54D12*
X-217500Y-150000D03*
X-135000Y-185000D03*
Y-152500D03*
X-80000Y-132500D03*
X-105000Y-125000D03*
X-52500D03*
G54D22*
G01X-240000Y-240000D02*
Y0D01*
X0D01*
Y-240000D01*
X-240000D01*
G54D13*
X-200000Y-70000D03*
G54D14*
X-210000Y-60000D03*
X-200000Y-50000D03*
G54D15*
X-170000Y-200000D03*
Y-210000D03*
X-190000Y-130000D03*
Y-120000D03*
Y-110000D03*
X-160000Y-130000D03*
Y-120000D03*
Y-110000D03*
Y-100000D03*
X-110000D03*
X-120000D03*
X-130000D03*
Y-70000D03*
X-120000D03*
X-110000D03*
X-80000Y-100000D03*
X-90000D03*
X-100000D03*
Y-70000D03*
X-90000D03*
X-80000D03*
X-60000Y-100000D03*
X-70000D03*
Y-70000D03*
X-60000Y-40000D03*
Y-50000D03*
X-30000Y-160000D03*
Y-150000D03*
Y-80000D03*
Y-70000D03*
G54D16*
X-190000Y-100000D03*
X-60000Y-70000D03*
G54D17*
X-120000Y-180000D03*
X-100000D03*
X-80000D03*
X-60000D03*
G54D18*
X-120000Y-144000D03*
X-100000D03*
X-80000D03*
X-60000D03*
G54D19*
X-42500Y-205000D03*
X-37500Y-200000D03*
X-42500Y-195000D03*
M02*
